<svg width="220" height="220" viewBox="0 0 220 220" fill="none" xmlns="http://www.w3.org/2000/svg">
<rect width="220" height="220" rx="28" fill="#2A534A"/>
<g clip-path="url(#clip0_239_2)">
<path d="M48.725 53C42.8039 53 38 57.8291 38 63.7812V135.656C38 141.608 42.8039 146.438 48.725 146.438H52.3C52.3 158.342 61.9078 168 73.75 168C85.5922 168 95.2 158.342 95.2 146.438H123.8C123.8 158.342 133.408 168 145.25 168C157.092 168 166.7 158.342 166.7 146.438H173.85C177.805 146.438 181 143.226 181 139.25C181 135.274 177.805 132.062 173.85 132.062V117.688V110.5V106.3C173.85 102.481 172.353 98.8203 169.672 96.125L152.4 78.7627C149.719 76.0674 146.077 74.5625 142.278 74.5625H130.95V63.7812C130.95 57.8291 126.146 53 120.225 53H48.725ZM130.95 88.9375H142.278L159.55 106.3V110.5H130.95V88.9375ZM63.025 146.438C63.025 143.578 64.155 140.836 66.1663 138.814C68.1776 136.792 70.9056 135.656 73.75 135.656C76.5944 135.656 79.3224 136.792 81.3337 138.814C83.345 140.836 84.475 143.578 84.475 146.438C84.475 149.297 83.345 152.039 81.3337 154.061C79.3224 156.083 76.5944 157.219 73.75 157.219C70.9056 157.219 68.1776 156.083 66.1663 154.061C64.155 152.039 63.025 149.297 63.025 146.438ZM145.25 135.656C148.094 135.656 150.822 136.792 152.834 138.814C154.845 140.836 155.975 143.578 155.975 146.438C155.975 149.297 154.845 152.039 152.834 154.061C150.822 156.083 148.094 157.219 145.25 157.219C142.406 157.219 139.678 156.083 137.666 154.061C135.655 152.039 134.525 149.297 134.525 146.438C134.525 143.578 135.655 140.836 137.666 138.814C139.678 136.792 142.406 135.656 145.25 135.656Z" fill="white"/>
</g>
<defs>
<clipPath id="clip0_239_2">
<rect width="143" height="115" fill="white" transform="translate(38 53)"/>
</clipPath>
</defs>
</svg>
